<?xml version="1.0" encoding="utf-8"?>
<!-- Generator: Adobe Illustrator 23.0.3, SVG Export Plug-In . SVG Version: 6.00 Build 0)  -->
<svg version="1.1" id="Layer_1" xmlns="http://www.w3.org/2000/svg" xmlns:xlink="http://www.w3.org/1999/xlink" x="0px" y="0px"
	 viewBox="0 0 48.8 48" style="enable-background:new 0 0 48.8 48;" xml:space="preserve">
<style type="text/css">
	.st0{fill:#29AAE1;}
	.st1{fill:#EC2427;}
	.st2{fill:#0D73BB;}
</style>
<g>
	<polygon class="st0" points="33.3,19.2 23.8,19.3 23.8,5.2 33.3,0 	"/>
	<polygon class="st1" points="48.8,48 39.3,48 39.3,5.2 48.8,0 	"/>
	<path class="st2" d="M3.9,44.7C1.2,42.1,0,38.5,0,33.6c0-4.8,1.2-8.5,3.9-11c1.9-1.8,4.6-3.2,9.8-3.2l19.6-0.1l-9.6,9.6h-9.6
		c-2,0-3,0.2-4,1c-1,0.8-1.7,1.5-1.7,3.8c0,2.4,0.7,3,1.7,3.9c1,0.8,2,1,4,1l19.2-0.1V48l-19.6-0.1C8.5,47.9,5.8,46.6,3.9,44.7"/>
</g>
</svg>
